<svg viewBox="-85 0 1100 560" width="95%" style="max-height:720px;" font-family="Charter, Georgia, serif" xmlns="http://www.w3.org/2000/svg">
<defs><filter id="redGlow" x="-20%" y="-20%" width="140%" height="140%"><feGaussianBlur stdDeviation="3.5" result="blur"/><feMerge><feMergeNode in="blur"/><feMergeNode in="SourceGraphic"/></feMerge></filter></defs>
<g stroke="#6a6760" stroke-width=".9">
<line x1="80" y1="50" x2="80" y2="510"/>
<line x1="80" y1="510" x2="850" y2="510"/>
<line x1="75" y1="100" x2="80" y2="100"/>
<line x1="75" y1="175" x2="80" y2="175"/>
<line x1="75" y1="250" x2="80" y2="250"/>
<line x1="75" y1="325" x2="80" y2="325"/>
<line x1="75" y1="400" x2="80" y2="400"/>
<line x1="75" y1="475" x2="80" y2="475"/>
<line x1="224" y1="510" x2="224" y2="515"/>
<line x1="417" y1="510" x2="417" y2="515"/>
<line x1="609" y1="510" x2="609" y2="515"/>
<line x1="802" y1="510" x2="802" y2="515"/>
</g>
<g font-size="16" fill="#3c3a32" text-anchor="end">
<text x="68" y="105">8</text>
<text x="68" y="180">7</text>
<text x="68" y="255">6</text>
<text x="68" y="330">5</text>
<text x="68" y="405">4</text>
<text x="68" y="480">3</text>
</g>
<text x="22" y="280" font-size="18" fill="#3c3a32" text-anchor="middle" transform="rotate(-90 22 280)">Cumulative Output IRF, p.p.</text>
<g font-size="16" fill="#3c3a32" text-anchor="middle">
<text x="224" y="532">20</text>
<text x="417" y="532">40</text>
<text x="609" y="532">60</text>
<text x="802" y="532">80</text>
</g>
<text x="455" y="558" font-size="18" fill="#3c3a32" text-anchor="middle">Hand-to-Mouth Share, %</text>
<line x1="131.8" y1="287.5" x2="814.1" y2="287.5" stroke="#8a857a" stroke-width="2.2" stroke-dasharray="8 4" stroke-linecap="round"/>
<polyline points="266.7,277.4 269.4,276.9 272.0,276.5 274.7,276.1 277.3,275.7 280.0,275.4 282.7,275.0 285.3,274.6 288.0,274.2 290.7,273.9 293.3,273.5 296.0,273.2 298.7,272.8 301.3,272.5 304.0,272.2 306.6,271.9 309.3,271.5 312.0,271.2 314.6,270.9 317.3,270.6 320.0,270.3 322.6,270.1 325.3,269.8 328.0,269.5 330.6,269.2 333.3,269.0 335.9,268.7 338.6,268.5 341.3,268.2 343.9,268.0 346.6,267.8 349.3,267.6 351.9,267.3 354.6,267.1 357.3,266.9 359.9,266.7 362.6,266.5 365.2,266.4 367.9,266.2 370.6,266.0 373.2,265.9 375.9,265.7 378.6,265.5 381.2,265.4 383.9,265.3 386.6,265.1 389.2,265.0 391.9,264.9 394.5,264.8 397.2,264.7 399.9,264.6 402.5,264.5 405.2,264.4 407.9,264.3 410.5,264.2 413.2,264.2 415.9,264.1 418.5,264.1 421.2,264.0 423.8,264.0 426.5,263.9 429.2,263.9 431.8,263.9 434.5,263.9 437.2,263.8 439.8,263.8 442.5,263.8 445.2,263.9 447.8,263.9 450.5,263.9 453.1,263.9 455.8,263.9 458.5,264.0 461.1,264.0 463.8,264.1 466.5,264.1 469.1,264.2 471.8,264.3 474.5,264.4 477.1,264.4 479.8,264.5 482.4,264.6 485.1,264.7 487.8,264.8 490.4,265.0 493.1,265.1 495.8,265.2 498.4,265.4 501.1,265.5 503.8,265.6 506.4,265.8 509.1,266.0 511.7,266.1 514.4,266.3 517.1,266.5 519.7,266.7 522.4,266.9 525.1,267.1 527.7,267.3 530.4,267.5 533.1,267.7 535.7,267.9 538.4,268.2 541.0,268.4 543.7,268.6 546.4,268.9 549.0,269.1 551.7,269.4 554.4,269.7 557.0,269.9 559.7,270.2 562.4,270.5 565.0,270.8 567.7,271.1 570.3,271.4 573.0,271.7 575.7,272.1 578.3,272.4 581.0,272.7 583.7,273.1 586.3,273.4 589.0,273.7 591.7,274.1 594.3,274.5 597.0,274.8 599.6,275.2 602.3,275.6 605.0,276.0 607.6,276.4 610.3,276.8 613.0,277.2 615.6,277.6 618.3,278.0 621.0,278.5 623.6,278.9 626.3,279.3 628.9,279.8 631.6,280.2 634.3,280.7 636.9,281.2 639.6,281.6 642.3,282.1 644.9,282.6 647.6,283.1 650.3,283.6 652.9,284.1 655.6,284.6 658.2,285.1 660.9,285.7 663.6,286.2 666.2,286.7 668.9,287.3 671.6,287.8 674.2,288.4 676.9,288.9 679.6,289.5 682.2,290.1 684.9,290.7 687.5,291.2 690.2,291.8" fill="none" stroke="#c0392b" stroke-width="9" stroke-linecap="round" stroke-linejoin="round" filter="url(#redGlow)" opacity=".45"/>
<polyline points="266.7,277.4 269.4,276.9 272.0,276.5 274.7,276.1 277.3,275.7 280.0,275.4 282.7,275.0 285.3,274.6 288.0,274.2 290.7,273.9 293.3,273.5 296.0,273.2 298.7,272.8 301.3,272.5 304.0,272.2 306.6,271.9 309.3,271.5 312.0,271.2 314.6,270.9 317.3,270.6 320.0,270.3 322.6,270.1 325.3,269.8 328.0,269.5 330.6,269.2 333.3,269.0 335.9,268.7 338.6,268.5 341.3,268.2 343.9,268.0 346.6,267.8 349.3,267.6 351.9,267.3 354.6,267.1 357.3,266.9 359.9,266.7 362.6,266.5 365.2,266.4 367.9,266.2 370.6,266.0 373.2,265.9 375.9,265.7 378.6,265.5 381.2,265.4 383.9,265.3 386.6,265.1 389.2,265.0 391.9,264.9 394.5,264.8 397.2,264.7 399.9,264.6 402.5,264.5 405.2,264.4 407.9,264.3 410.5,264.2 413.2,264.2 415.9,264.1 418.5,264.1 421.2,264.0 423.8,264.0 426.5,263.9 429.2,263.9 431.8,263.9 434.5,263.9 437.2,263.8 439.8,263.8 442.5,263.8 445.2,263.9 447.8,263.9 450.5,263.9 453.1,263.9 455.8,263.9 458.5,264.0 461.1,264.0 463.8,264.1 466.5,264.1 469.1,264.2 471.8,264.3 474.5,264.4 477.1,264.4 479.8,264.5 482.4,264.6 485.1,264.7 487.8,264.8 490.4,265.0 493.1,265.1 495.8,265.2 498.4,265.4 501.1,265.5 503.8,265.6 506.4,265.8 509.1,266.0 511.7,266.1 514.4,266.3 517.1,266.5 519.7,266.7 522.4,266.9 525.1,267.1 527.7,267.3 530.4,267.5 533.1,267.7 535.7,267.9 538.4,268.2 541.0,268.4 543.7,268.6 546.4,268.9 549.0,269.1 551.7,269.4 554.4,269.7 557.0,269.9 559.7,270.2 562.4,270.5 565.0,270.8 567.7,271.1 570.3,271.4 573.0,271.7 575.7,272.1 578.3,272.4 581.0,272.7 583.7,273.1 586.3,273.4 589.0,273.7 591.7,274.1 594.3,274.5 597.0,274.8 599.6,275.2 602.3,275.6 605.0,276.0 607.6,276.4 610.3,276.8 613.0,277.2 615.6,277.6 618.3,278.0 621.0,278.5 623.6,278.9 626.3,279.3 628.9,279.8 631.6,280.2 634.3,280.7 636.9,281.2 639.6,281.6 642.3,282.1 644.9,282.6 647.6,283.1 650.3,283.6 652.9,284.1 655.6,284.6 658.2,285.1 660.9,285.7 663.6,286.2 666.2,286.7 668.9,287.3 671.6,287.8 674.2,288.4 676.9,288.9 679.6,289.5 682.2,290.1 684.9,290.7 687.5,291.2 690.2,291.8" fill="none" stroke="#c0392b" stroke-width="3.6" stroke-linecap="round" stroke-linejoin="round"/>
<g fill="#c0392b" stroke="#ffffff" stroke-width="2.2">
<circle cx="266.7" cy="274.0" r="7"/>
<circle cx="327.5" cy="269.2" r="7"/>
<circle cx="334.1" cy="275.1" r="7"/>
<circle cx="472.8" cy="261.2" r="7"/>
<circle cx="690.2" cy="292.4" r="7"/>
</g>
<text x="257.7" y="257.0" font-size="17" font-weight="700" fill="#1f1f24" text-anchor="end">Germany</text>
<text x="336.5" y="252.2" font-size="17" font-weight="700" fill="#1f1f24" text-anchor="start">United States</text>
<text x="334.1" y="296.1" font-size="17" font-weight="700" fill="#1f1f24" text-anchor="middle">Italy</text>
<text x="472.8" y="230.2" font-size="17" font-weight="700" fill="#1f1f24" text-anchor="middle">Cyprus</text>
<text x="690.2" y="275.4" font-size="17" font-weight="700" fill="#1f1f24" text-anchor="middle">Thailand</text>
<text x="845" y="250" font-size="17" fill="#c0392b" font-weight="700">Empirical ψ</text>
<text x="845" y="272" font-size="17" fill="#c0392b" font-style="italic">Country ψ, ζ = 0</text>
<text x="845" y="294" font-size="17" fill="#8a857a" font-weight="700">Acyclical</text>
</svg>